<svg width="419" height="300" viewBox="0 0 419 300" fill="none" xmlns="http://www.w3.org/2000/svg">
<g id="rotatearrows">
<rect width="419" height="300" fill="white"/>
<path id="arrows" fill-rule="evenodd" clip-rule="evenodd" d="M136.748 147.629C136.748 187.78 165.86 215.131 198.55 220.792C202.291 221.44 204.799 224.997 204.151 228.739C203.503 232.479 199.945 234.987 196.205 234.339C157.801 227.689 123 195.321 123 147.629C123 127.361 132.221 111.433 142.989 99.3156C150.703 90.6358 159.528 83.5883 166.626 78.1894H145.042C141.4 78.1894 138.448 75.2369 138.448 71.5947C138.448 67.9526 141.4 65 145.042 65H184.611C188.253 65 191.205 67.9526 191.205 71.5947V111.163C191.205 114.805 188.253 117.758 184.611 117.758C180.969 117.758 178.016 114.805 178.016 111.163V86.821L177.996 86.836C170.459 92.5208 161.246 99.4688 153.266 108.448C143.842 119.053 136.748 131.864 136.748 147.629ZM283.251 152.989C283.251 113.262 254.757 86.0712 222.488 80.0131C218.757 79.3127 216.3 75.72 217 71.9886C217.701 68.2573 221.293 65.8003 225.025 66.5008C262.934 73.6179 297 105.809 297 152.989C297 173.257 287.779 189.185 277.011 201.302C269.297 209.982 260.472 217.029 253.375 222.429H274.958C278.601 222.429 281.553 225.381 281.553 229.024C281.553 232.665 278.601 235.618 274.958 235.618H235.39C231.748 235.618 228.795 232.665 228.795 229.024V189.455C228.795 185.812 231.748 182.86 235.39 182.86C239.032 182.86 241.985 185.812 241.985 189.455V213.796L242.005 213.781C249.543 208.096 258.755 201.149 266.734 192.17C276.158 181.565 283.251 168.754 283.251 152.989Z" fill="black"/>
</g>
</svg>
