<svg width="750" height="502" viewBox="0 0 750 502" fill="none" xmlns="http://www.w3.org/2000/svg">
<g id="Sci_Fi_Loader">
<g id="lines">
<circle id="Outer_4" cx="374.553" cy="250.553" r="69.4474" stroke="black" stroke-width="2" stroke-linecap="round" stroke-dasharray="2 4 6 20"/>
<circle id="Outer_3" cx="374.447" cy="250.447" r="82.5526" stroke="black" stroke-width="2" stroke-linecap="round" stroke-dasharray="20 20"/>
<circle id="Outer_2" cx="374.5" cy="250.5" r="90.5" stroke="black" stroke-width="5" stroke-linecap="round" stroke-dasharray="10 52"/>
<circle id="Outer_1" cx="374.553" cy="250.553" r="97.4474" stroke="black" stroke-width="2" stroke-linecap="round" stroke-dasharray="20 20"/>
</g>
<g id="eclipses">
<g id="Ellipse 1">
<mask id="path-5-inside-1_1_2" fill="white">
<path d="M434 250.5C434 238.534 430.452 226.837 423.804 216.888C417.156 206.939 407.707 199.184 396.652 194.605C385.597 190.026 373.433 188.828 361.697 191.162C349.961 193.497 339.181 199.259 330.72 207.72C322.259 216.181 316.497 226.961 314.162 238.697C311.828 250.433 313.026 262.597 317.605 273.652C322.184 284.707 329.939 294.156 339.888 300.804C349.837 307.452 361.534 311 373.5 311L373.5 303.869C362.945 303.869 352.626 300.739 343.85 294.875C335.073 289.011 328.232 280.676 324.193 270.924C320.154 261.172 319.097 250.441 321.156 240.088C323.215 229.735 328.298 220.226 335.762 212.762C343.226 205.298 352.735 200.215 363.088 198.156C373.441 196.097 384.172 197.154 393.924 201.193C403.676 205.232 412.011 212.073 417.875 220.85C423.739 229.626 426.869 239.945 426.869 250.5H434Z"/>
</mask>
<path d="M434 250.5C434 238.534 430.452 226.837 423.804 216.888C417.156 206.939 407.707 199.184 396.652 194.605C385.597 190.026 373.433 188.828 361.697 191.162C349.961 193.497 339.181 199.259 330.72 207.72C322.259 216.181 316.497 226.961 314.162 238.697C311.828 250.433 313.026 262.597 317.605 273.652C322.184 284.707 329.939 294.156 339.888 300.804C349.837 307.452 361.534 311 373.5 311L373.5 303.869C362.945 303.869 352.626 300.739 343.85 294.875C335.073 289.011 328.232 280.676 324.193 270.924C320.154 261.172 319.097 250.441 321.156 240.088C323.215 229.735 328.298 220.226 335.762 212.762C343.226 205.298 352.735 200.215 363.088 198.156C373.441 196.097 384.172 197.154 393.924 201.193C403.676 205.232 412.011 212.073 417.875 220.85C423.739 229.626 426.869 239.945 426.869 250.5H434Z" fill="#DFDFDF" stroke="black" stroke-width="2" mask="url(#path-5-inside-1_1_2)"/>
</g>
<g id="Ellipse 2">
<mask id="path-6-inside-2_1_2" fill="white">
<path d="M402.953 288.547C410.478 282.722 416.106 274.796 419.127 265.772C422.148 256.748 422.424 247.031 419.922 237.849C417.42 228.668 412.252 220.435 405.07 214.191C397.889 207.947 389.017 203.972 379.577 202.77C370.137 201.568 360.553 203.193 352.036 207.438C343.519 211.683 336.452 218.358 331.729 226.62C327.006 234.881 324.839 244.358 325.502 253.851C326.165 263.344 329.628 272.428 335.453 279.953L339.937 276.481C334.798 269.843 331.744 261.83 331.159 253.456C330.574 245.082 332.486 236.722 336.652 229.434C340.819 222.147 347.053 216.258 354.566 212.513C362.079 208.768 370.534 207.335 378.861 208.396C387.188 209.456 395.014 212.962 401.349 218.47C407.684 223.978 412.244 231.241 414.451 239.34C416.658 247.44 416.414 256.012 413.749 263.972C411.085 271.933 406.12 278.924 399.481 284.063L402.953 288.547Z"/>
</mask>
<path d="M402.953 288.547C410.478 282.722 416.106 274.796 419.127 265.772C422.148 256.748 422.424 247.031 419.922 237.849C417.42 228.668 412.252 220.435 405.07 214.191C397.889 207.947 389.017 203.972 379.577 202.77C370.137 201.568 360.553 203.193 352.036 207.438C343.519 211.683 336.452 218.358 331.729 226.62C327.006 234.881 324.839 244.358 325.502 253.851C326.165 263.344 329.628 272.428 335.453 279.953L339.937 276.481C334.798 269.843 331.744 261.83 331.159 253.456C330.574 245.082 332.486 236.722 336.652 229.434C340.819 222.147 347.053 216.258 354.566 212.513C362.079 208.768 370.534 207.335 378.861 208.396C387.188 209.456 395.014 212.962 401.349 218.47C407.684 223.978 412.244 231.241 414.451 239.34C416.658 247.44 416.414 256.012 413.749 263.972C411.085 271.933 406.12 278.924 399.481 284.063L402.953 288.547Z" fill="#DFDFDF" stroke="black" stroke-width="2" mask="url(#path-6-inside-2_1_2)"/>
</g>
<g id="Ellipse 3">
<mask id="path-7-inside-3_1_2" fill="white">
<path d="M407.987 243.592C406.716 236.675 403.423 230.291 398.524 225.246C393.625 220.2 387.34 216.721 380.464 215.248C373.588 213.775 366.429 214.374 359.893 216.969C353.357 219.564 347.738 224.04 343.745 229.829C339.752 235.618 337.566 242.461 337.463 249.493C337.359 256.524 339.344 263.429 343.164 269.333C346.985 275.237 352.47 279.875 358.927 282.661C365.384 285.448 372.522 286.257 379.439 284.987L378.682 280.865C372.58 281.986 366.283 281.272 360.588 278.814C354.892 276.356 350.053 272.264 346.682 267.056C343.312 261.848 341.562 255.757 341.653 249.554C341.744 243.351 343.673 237.315 347.195 232.208C350.717 227.101 355.674 223.153 361.44 220.864C367.205 218.574 373.52 218.046 379.586 219.346C385.652 220.645 391.196 223.714 395.518 228.165C399.84 232.616 402.744 238.248 403.865 244.349L407.987 243.592Z"/>
</mask>
<path d="M407.987 243.592C406.716 236.675 403.423 230.291 398.524 225.246C393.625 220.2 387.34 216.721 380.464 215.248C373.588 213.775 366.429 214.374 359.893 216.969C353.357 219.564 347.738 224.04 343.745 229.829C339.752 235.618 337.566 242.461 337.463 249.493C337.359 256.524 339.344 263.429 343.164 269.333C346.985 275.237 352.47 279.875 358.927 282.661C365.384 285.448 372.522 286.257 379.439 284.987L378.682 280.865C372.58 281.986 366.283 281.272 360.588 278.814C354.892 276.356 350.053 272.264 346.682 267.056C343.312 261.848 341.562 255.757 341.653 249.554C341.744 243.351 343.673 237.315 347.195 232.208C350.717 227.101 355.674 223.153 361.44 220.864C367.205 218.574 373.52 218.046 379.586 219.346C385.652 220.645 391.196 223.714 395.518 228.165C399.84 232.616 402.744 238.248 403.865 244.349L407.987 243.592Z" fill="#DFDFDF" stroke="black" stroke-width="2" mask="url(#path-7-inside-3_1_2)"/>
</g>
</g>
<g id="pyramid">
<path id="triangle" d="M351.55 263.75L374.5 224L397.45 263.75H351.55Z" fill="#D9D9D9" stroke="black"/>
<g id="eye">
<path id="ekso_mati" d="M383.788 250.034C383.788 251.322 382.87 252.585 381.173 253.555C379.49 254.516 377.132 255.127 374.5 255.127C371.868 255.127 369.51 254.516 367.827 253.555C366.13 252.585 365.212 251.322 365.212 250.034C365.212 248.746 366.13 247.483 367.827 246.513C369.51 245.551 371.868 244.941 374.5 244.941C377.132 244.941 379.49 245.551 381.173 246.513C382.87 247.483 383.788 248.746 383.788 250.034Z" fill="#D9D9D9" stroke="black"/>
<circle id="mesa_mati" cx="374.5" cy="250.034" r="2.79661" fill="black"/>
<circle id="telitsa_mati" cx="375.199" cy="250.733" r="0.699153" fill="#D9D9D9"/>
</g>
</g>
</g>
</svg>
