<svg width="120" height="100" viewBox="0 0 120 100" fill="none" xmlns="http://www.w3.org/2000/svg">
    <g id="triangles" clip-path="url(#clip0_1_2)">
        <g id="darkGroup" opacity="0.7">
            <path id="dark1"
                d="M43 52.268C44.3333 53.0378 44.3333 54.9623 43 55.7321L8.5 75.6506C7.16666 76.4204 5.5 75.4582 5.5 73.9186L5.5 34.0814C5.5 32.5418 7.16667 31.5796 8.5 32.3494L43 52.268Z"
                fill="#5CCF52" />
            <path id="dark2"
                d="M57 52.268C58.3333 53.0378 58.3333 54.9623 57 55.7321L22.5 75.6506C21.1667 76.4204 19.5 75.4582 19.5 73.9186L19.5 34.0814C19.5 32.5418 21.1667 31.5796 22.5 32.3494L57 52.268Z"
                fill="#C8F2C5" />
        </g>
        <g id="lightGroup" opacity="0.7">
            <path id="light1"
                d="M43 52.268C44.3333 53.0378 44.3333 54.9623 43 55.7321L8.5 75.6506C7.16666 76.4204 5.5 75.4582 5.5 73.9186L5.5 34.0814C5.5 32.5418 7.16667 31.5796 8.5 32.3494L43 52.268Z"
                fill="#5CCF52" />
        </g>
    </g>
    <defs>
        <clipPath id="clip0_1_2">
            <rect width="120" height="100" fill="white" />
        </clipPath>
    </defs>
</svg>